<svg version="1.1" id="Layer_1" xmlns="http://www.w3.org/2000/svg" xmlns:xlink="http://www.w3.org/1999/xlink" x="0px" y="0px"
	 width="100%" viewBox="0 0 1024 1024" enable-background="new 0 0 1024 1024" xml:space="preserve">
<path fill="#000000" opacity="1.000000" stroke="none"
	d="
M693.409546,732.498413
	C679.628357,740.679871 665.430176,745.596741 649.426208,743.529175
	C634.161316,741.557068 623.258789,733.472412 616.173950,720.076294
	C606.490906,701.767334 605.479248,682.641174 611.289124,662.979126
	C612.891174,657.557495 614.669373,652.187683 616.258606,646.762390
	C617.226074,643.459656 616.311951,641.924316 612.531921,642.951477
	C604.774170,645.059448 596.965027,646.547791 588.933594,644.214966
	C586.036804,643.373596 585.747986,645.860535 585.080872,647.665833
	C581.044128,658.589050 577.494629,669.719482 571.784119,679.944214
	C555.425476,709.234680 532.408386,731.129639 500.211212,741.818481
	C483.556458,747.347473 466.323700,748.356201 449.211029,742.494385
	C437.858582,738.605713 428.889404,731.988464 423.247406,721.202881
	C422.090210,718.990662 420.783234,716.855774 419.517578,714.701538
	C413.508179,704.473206 416.043121,704.402161 405.549835,711.884644
	C391.169037,722.139343 376.958649,732.564270 360.574005,739.600098
	C346.752716,745.535156 332.867218,745.830017 318.684753,741.339722
	C315.177521,740.229248 312.583832,738.105835 310.617828,735.028198
	C304.148651,724.901062 302.609375,713.594910 303.265045,701.991760
	C304.654022,677.410645 314.255127,654.852722 321.211487,631.653931
	C325.314911,617.969543 330.739441,604.676819 333.161896,590.494751
	C333.871826,586.338440 333.879486,582.181580 333.568481,578.050964
	C333.169800,572.756226 327.151093,569.355957 320.986237,570.725952
	C312.826233,572.539246 306.004517,577.073120 299.313385,581.752991
	C276.951935,597.392822 261.256683,618.765320 247.828537,642.043274
	C234.719894,664.767273 225.464188,689.256531 215.286499,713.322327
	C214.119308,716.082275 212.654190,718.735474 211.704498,721.564819
	C206.870773,735.965637 195.642227,740.992126 181.770294,742.397888
	C177.299240,742.851013 172.861099,743.667358 168.345398,743.277283
	C159.330551,742.498596 154.669464,735.320129 158.644104,727.416565
	C173.214096,698.443848 182.666672,667.530640 193.193619,637.036560
	C201.927383,611.736938 210.339447,586.313782 216.189713,560.140564
	C216.768158,557.552795 217.390961,554.940979 217.594543,552.309448
	C218.382767,542.120422 222.310028,537.759521 232.746323,536.841125
	C238.181290,536.362854 243.665985,536.717468 249.174683,537.283752
	C262.067322,538.608887 266.152252,549.122498 263.743073,559.746765
	C262.347107,565.902893 260.814911,572.034180 259.115021,578.112610
	C258.331451,580.914551 258.156769,583.624084 258.760101,587.303955
	C262.922028,584.339172 265.593445,580.612244 268.473877,577.166138
	C283.944702,558.657288 302.472351,544.442627 325.319458,536.147095
	C335.128998,532.585388 345.234497,531.030273 355.122253,534.545776
	C370.312103,539.946411 379.261444,551.374512 382.244019,567.054077
	C385.407593,583.685120 379.843536,598.936157 373.396790,613.843323
	C363.139038,637.562805 354.566986,661.833374 348.891022,687.072937
	C348.129608,690.458801 347.474701,693.945251 347.411865,697.396851
	C347.234802,707.122498 355.769653,712.647400 364.561066,708.412964
	C372.244263,704.712341 379.109100,699.614990 385.654541,694.205200
	C390.781616,689.967651 395.463409,685.189392 400.318909,680.625732
	C406.547638,674.771362 410.438263,667.858643 412.249512,659.272217
	C417.959412,632.203796 430.849792,608.382874 447.556580,586.678162
	C461.547455,568.501892 477.570892,552.242676 497.715973,540.707458
	C508.931824,534.285156 520.782349,529.604553 534.040039,529.633667
	C558.347229,529.687073 577.412292,542.631958 586.108887,565.291077
	C591.634644,579.688538 592.894836,594.719421 591.895630,609.967529
	C591.489868,616.159424 592.947571,618.174316 599.171448,617.554565
	C609.518127,616.524231 619.362122,613.849976 628.487244,608.516541
	C638.703613,602.545349 646.092957,593.868164 652.833618,584.492493
	C669.272888,561.626953 690.501892,545.146851 717.286743,536.130554
	C734.338562,530.390503 751.250244,529.861572 767.559692,538.687012
	C771.006165,540.551941 774.077332,543.110352 777.594849,545.537964
	C781.555542,539.004944 783.288330,531.864136 785.597290,524.984436
	C795.949402,494.140259 808.882141,464.406372 823.862305,435.549866
	C826.862793,429.769928 830.543396,424.422760 834.846497,419.501526
	C844.804382,408.113068 857.604736,403.712494 872.347046,404.394623
	C879.175476,404.710602 882.295593,409.008026 881.482849,415.889313
	C881.183167,418.426636 880.428101,420.792908 879.272461,422.995117
	C864.155273,451.802704 853.077515,482.368164 840.307556,512.198975
	C827.711243,541.624084 819.315247,572.510376 808.397827,602.519348
	C799.476379,627.041809 789.829346,651.349915 783.992249,676.904541
	C782.341309,684.132202 781.904236,691.402832 782.404968,698.724548
	C783.044800,708.079590 788.950256,711.741760 797.525330,708.086609
	C804.377075,705.165955 810.134460,700.585266 814.820435,694.834229
	C817.192810,691.922607 819.448486,691.342590 822.415710,693.618408
	C822.811707,693.922119 823.235474,694.189819 823.647949,694.472046
	C834.597656,701.962219 835.374512,705.548401 826.857300,715.508057
	C813.136169,731.552979 795.830383,741.649719 774.699158,744.086060
	C760.746277,745.694763 750.107239,739.492493 742.819763,727.731873
	C738.474182,720.718933 735.915894,713.014160 735.544983,704.647705
	C735.438171,702.237488 735.257751,699.711914 733.782776,697.399475
	C730.225525,698.259094 728.475830,701.042908 726.522095,703.389648
	C717.077698,714.734070 706.732849,725.024231 693.409546,732.498413
M469.739319,628.154236
	C462.655243,644.361633 458.257751,661.134338 459.380280,678.994507
	C459.894440,687.175232 461.279480,695.192322 465.514130,702.420166
	C470.909485,711.629089 481.599274,715.497681 491.809631,712.385132
	C504.023590,708.661804 513.088013,700.679993 520.589539,690.933167
	C542.249878,662.789734 551.402649,630.550720 550.828247,595.325134
	C550.688843,586.778137 549.092834,578.452759 545.740356,570.558472
	C542.623413,563.219055 537.775085,560.968323 530.080017,563.008728
	C524.028809,564.613281 518.661072,567.608826 513.710022,571.338928
	C494.104950,586.109558 479.694824,604.937561 469.739319,628.154236
M716.636841,674.152466
	C735.516602,650.223877 750.683167,624.142273 762.187622,595.911255
	C764.673889,589.810059 766.142517,583.816711 764.707092,577.097290
	C762.659424,567.512024 755.141968,557.028259 740.693909,561.736938
	C727.040894,566.186523 715.722351,574.492615 705.857910,584.406067
	C682.017212,608.365234 666.096130,637.073669 657.277954,669.694397
	C654.719543,679.158813 654.205872,688.712646 657.222656,698.185608
	C659.661438,705.843506 665.393311,708.920959 673.119263,707.022156
	C679.812988,705.377075 685.992249,702.580811 691.726135,698.777466
	C701.437378,692.336121 708.724548,683.431946 716.636841,674.152466
z"/>
<path fill="#000000" opacity="1.000000" stroke="none"
	d="
M712.833740,290.123566
	C693.245911,262.154358 666.479492,248.294464 632.917603,246.146545
	C618.182800,245.203522 603.638367,244.886795 589.318909,248.678970
	C562.900940,255.675201 544.894348,273.418793 530.974731,295.816498
	C521.435669,311.165619 516.536499,328.048096 515.095154,346.214722
	C513.868164,361.680603 515.230713,377.184448 513.455139,392.606323
	C513.091797,395.761841 513.200989,398.602203 509.166687,399.277344
	C503.092834,400.293793 498.793243,398.779694 497.447906,394.648224
	C490.910614,374.572571 489.569916,354.036346 491.397308,333.066803
	C493.076324,313.800018 498.043335,295.581543 508.708191,279.504578
	C527.014526,251.908371 551.041199,231.218307 583.748962,222.555359
	C600.077759,218.230530 616.898010,217.823547 633.744080,218.495712
	C649.957886,219.142639 666.016541,221.261429 681.112244,227.108948
	C722.455200,243.123657 746.781433,273.084900 753.480774,317.242340
	C756.339966,336.088226 755.406250,354.627258 751.665710,373.214508
	C749.689758,383.033112 752.765991,392.266541 756.002014,401.449158
	C759.884583,412.466675 765.279175,422.828491 769.512756,433.679047
	C771.917664,439.842743 774.139160,446.024078 772.516846,453.018433
	C770.421692,462.051300 765.067444,467.745300 756.380859,470.289520
	C749.993774,472.160248 743.451660,473.648926 736.732239,473.304932
	C731.582214,473.041290 728.323120,475.297180 725.823975,479.620941
	C720.740540,488.415619 716.318970,497.558167 711.342529,506.417236
	C699.608643,527.305908 670.190369,535.209106 651.317505,530.781494
	C640.889343,528.335083 630.812500,525.080872 622.012939,518.641541
	C615.093323,513.577881 614.057068,510.007446 617.873413,503.068939
	C620.807983,497.733704 623.223816,496.729828 629.387329,498.116119
	C638.930420,500.262543 648.238647,503.252747 658.155762,503.948090
	C672.715210,504.968933 683.051331,498.921722 690.993896,487.186218
	C698.004578,476.827759 703.895630,465.794434 710.319092,455.108521
	C716.310181,445.141907 724.159119,443.316925 734.271240,445.037048
	C737.513794,445.588593 740.758240,446.176392 744.064087,445.078186
	C744.258423,442.200012 742.721924,440.126312 741.701050,437.916504
	C735.697571,424.921997 729.701233,411.941681 725.489807,398.199707
	C723.157776,390.590546 723.268860,383.239532 725.638855,375.675842
	C735.169983,345.258240 730.197571,316.924469 712.833740,290.123566
z"/>
</svg>